<?xml version="1.0" standalone="no"?>
<!DOCTYPE svg PUBLIC "-//W3C//DTD SVG 20010904//EN"
 "http://www.w3.org/TR/2001/REC-SVG-20010904/DTD/svg10.dtd">
<svg version="1.0" xmlns="http://www.w3.org/2000/svg"
 width="1024.000000pt" height="1024.000000pt" viewBox="0 0 1024.000000 1024.000000"
 preserveAspectRatio="xMidYMid meet">
<metadata>
Created by potrace 1.11, written by Peter Selinger 2001-2013
</metadata>
<g transform="translate(0.000000,1024.000000) scale(0.100000,-0.100000)"
fill="#000000" stroke="none">
<path d="M2037 9023 c-3 -3 -500 -15 -757 -18 -343 -4 -425 -11 -614 -50 -57
-12 -185 -66 -242 -104 -171 -110 -308 -360 -349 -636 -14 -89 -16 -101 -20
-125 -9 -53 -18 -153 -30 -345 -30 -461 -22 -1529 20 -2945 3 -85 7 -235 10
-333 3 -97 7 -212 10 -255 2 -42 7 -133 10 -202 3 -69 8 -141 10 -160 2 -19 6
-87 10 -150 3 -63 8 -133 10 -155 2 -22 7 -76 10 -120 4 -44 8 -93 10 -110 2
-16 6 -65 10 -107 3 -43 8 -88 10 -100 3 -22 9 -75 21 -195 3 -32 7 -71 9 -88
2 -16 9 -68 15 -115 5 -47 12 -94 14 -106 2 -12 7 -45 11 -75 3 -30 8 -65 10
-79 2 -14 7 -45 10 -70 4 -25 15 -99 26 -165 11 -66 22 -136 25 -155 2 -19 9
-57 14 -85 5 -27 11 -61 14 -75 51 -309 84 -411 162 -507 96 -117 306 -195
524 -196 98 0 388 11 450 18 19 2 67 6 106 10 39 3 80 7 90 9 16 3 72 10 179
22 76 8 132 15 145 19 8 2 40 7 70 10 30 3 80 10 110 15 121 20 257 42 290 46
241 30 420 284 423 599 1 150 -28 208 -130 259 -77 39 -201 49 -403 32 -99 -8
-100 -8 -335 -48 -237 -39 -504 -50 -586 -23 -77 25 -143 77 -182 143 -48 80
-54 102 -67 232 -6 63 -13 133 -15 155 -2 22 -7 76 -10 120 -4 44 -8 100 -10
125 -2 25 -7 88 -10 140 -3 52 -8 120 -10 150 -7 97 -23 385 -30 545 -13 329
-16 400 -20 510 -22 643 -23 3527 -2 3562 3 5 8 20 11 34 18 94 87 168 189
203 54 18 150 22 727 31 503 8 500 7 597 55 170 84 291 327 287 578 -3 159
-63 236 -209 267 -32 7 -612 15 -618 8z"/>
<path d="M9037 9024 c-1 -1 -56 -5 -122 -9 -194 -11 -186 -10 -415 -40 -19 -3
-55 -7 -80 -10 -25 -3 -56 -8 -70 -10 -32 -5 -161 -23 -220 -30 -25 -3 -52 -8
-60 -10 -8 -2 -35 -7 -60 -10 -25 -3 -56 -8 -70 -10 -14 -2 -45 -7 -70 -10
-25 -4 -66 -11 -92 -15 -214 -41 -379 -293 -387 -591 -2 -82 1 -105 20 -148
48 -112 140 -153 342 -151 175 1 280 11 452 44 24 4 147 24 195 30 126 18 334
24 403 12 100 -17 195 -94 245 -197 32 -65 34 -77 58 -359 2 -30 6 -77 9 -105
11 -124 20 -246 30 -410 11 -190 15 -260 31 -565 7 -157 19 -481 30 -885 5
-184 5 -2403 0 -2890 -2 -171 -8 -286 -15 -315 -38 -140 -133 -209 -306 -224
-33 -3 -215 -8 -405 -11 -567 -10 -658 -13 -702 -20 -121 -19 -240 -119 -308
-258 -53 -109 -71 -180 -77 -315 -7 -134 7 -181 67 -236 48 -44 97 -65 170
-74 66 -8 482 -6 885 3 160 3 403 8 540 10 334 4 429 15 580 62 139 44 212 87
303 181 115 119 196 310 241 576 17 99 22 141 36 291 28 314 28 1888 0 2740
-2 55 -6 213 -10 350 -8 365 -22 699 -40 980 -4 50 -8 119 -10 155 -5 76 -14
186 -20 250 -2 25 -7 81 -10 125 -3 44 -8 96 -10 115 -2 19 -7 64 -10 100 -4
36 -8 81 -10 100 -2 19 -7 60 -10 90 -3 30 -8 72 -10 93 -12 93 -15 120 -20
160 -12 91 -45 325 -61 417 -2 14 -7 45 -10 70 -3 25 -22 131 -41 235 -19 105
-37 204 -39 220 -40 258 -179 409 -439 476 -74 19 -119 23 -258 24 -92 1 -168
0 -170 -1z"/>
<path d="M7117 7454 c-1 -1 -164 -5 -362 -8 -198 -4 -378 -8 -400 -10 -22 -2
-107 -6 -190 -10 -82 -4 -172 -9 -200 -11 -27 -3 -84 -7 -125 -10 -41 -3 -95
-7 -120 -10 -25 -2 -79 -6 -120 -10 -41 -3 -86 -8 -100 -10 -14 -2 -56 -6 -95
-10 -90 -7 -360 -40 -545 -65 -144 -20 -172 -24 -240 -36 -19 -3 -48 -8 -65
-11 -32 -5 -49 -7 -105 -17 -78 -13 -96 -16 -130 -22 -80 -12 -172 -29 -360
-64 -85 -16 -170 -32 -189 -35 -123 -21 -466 -91 -566 -116 -428 -106 -650
-249 -710 -456 -18 -61 -23 -202 -11 -287 36 -250 228 -300 661 -172 50 15 97
29 105 31 8 2 78 22 155 44 77 23 167 46 200 52 86 16 196 14 233 -5 122 -63
292 -430 387 -831 46 -195 48 -278 10 -312 -29 -26 -69 -25 -260 2 -53 7 -355
124 -460 177 -103 53 -211 83 -294 81 -91 -2 -211 -70 -300 -170 -184 -206
-195 -439 -28 -619 108 -117 296 -220 494 -270 102 -26 329 -74 378 -80 17 -2
41 -6 55 -8 83 -16 365 -36 578 -41 77 -1 139 -8 153 -15 31 -16 68 -58 83
-95 12 -27 81 -275 127 -450 39 -149 149 -585 154 -610 3 -14 7 -37 10 -51 3
-14 13 -56 21 -93 9 -36 17 -73 19 -81 64 -311 73 -346 101 -391 37 -60 102
-97 213 -122 98 -22 288 -8 406 30 129 41 219 106 273 195 89 149 75 344 -63
878 -59 229 -69 263 -149 539 -31 106 -59 207 -61 224 -3 17 -8 33 -10 37 -10
16 18 81 42 100 34 27 79 37 189 45 51 3 100 7 110 9 36 7 279 27 489 41 183
12 250 18 345 31 58 8 120 17 137 19 18 3 54 10 80 16 27 6 57 13 69 15 51 10
184 58 239 87 179 94 240 183 252 362 9 138 -26 241 -110 326 -48 49 -94 75
-168 94 -64 17 -328 11 -514 -11 -80 -9 -131 -16 -157 -20 -15 -2 -49 -6 -75
-9 -41 -4 -121 -15 -223 -30 -14 -2 -63 -9 -110 -15 -84 -11 -98 -13 -175 -24
-50 -8 -102 -13 -185 -21 -36 -3 -85 -8 -110 -11 -25 -2 -103 -5 -175 -6 -167
-1 -210 15 -262 102 -28 46 -273 622 -273 641 0 3 -8 24 -17 45 -9 22 -18 44
-19 49 -2 6 -21 62 -42 125 -22 63 -45 143 -52 176 -16 79 0 112 65 143 45 21
210 64 290 76 22 3 54 8 70 10 73 13 311 34 445 41 69 3 152 7 185 9 152 9
639 17 1160 20 418 1 582 5 615 15 251 69 373 341 306 685 -6 33 -57 100 -94
125 -90 59 -120 63 -520 64 -200 1 -364 0 -365 0z"/>
</g>
</svg>
